# xmcd
#
# Track frame offsets:
#	150
#	9596
#	17973
#	35226
#	45223
#	53473
#	61695
#	68289
#	78604
#	86082
#	100042
#	113360
#	122080
#	130263
#
# Disc length: 1853 seconds
#
# Revision: 1
# Processed by: cddbd v1.5.1PL0 Copyright (c) Steve Scherf et al.
# Submitted via: CDex 1.50Beta5
#
DISCID=a2073b0e
DTITLE=YELLOW MACHINEGUN - YELLOW BUCKET
DYEAR=1900
DGENRE=
TTITLE0=SHUT DOWN THE LIMIT
TTITLE1=ROLL OVER
TTITLE2=FLOATIN’ WEED
TTITLE3=CHANGE YOUR CHANNEL
TTITLE4=HIDE-AND-SEEK
TTITLE5=LAZYBONE SYNDROME
TTITLE6=TURN AROUND THE CORNER
TTITLE7=DAYS LIKE BUILDING BLOCKS
TTITLE8=UNDERGROUND
TTITLE9=HELLO SMILY YELLOW BUCKET
TTITLE10=LOOP
TTITLE11=ANOTHER LAND
TTITLE12=TOOL BOX
TTITLE13=SPICY SPIKY
EXTD=
EXTT0=
EXTT1=
EXTT2=
EXTT3=
EXTT4=
EXTT5=
EXTT6=
EXTT7=
EXTT8=
EXTT9=
EXTT10=
EXTT11=
EXTT12=
EXTT13=
PLAYORDER=
